# Blender v2.79 (sub 0) OBJ File: ''
# www.blender.org
mtllib pebble_pile_diminished.mtl
o Cube
v 0.853396 0.426567 -2.267284
v 0.504479 0.435152 0.032747
v -2.057085 0.227009 0.407905
v -1.609251 -0.008339 -2.297251
v 0.525921 1.146480 -2.109603
v 0.778521 1.657516 0.136319
v -1.198756 0.734498 0.961086
v -1.590703 1.316709 -1.631947
v 0.755128 0.493159 -2.187551
v 0.416672 0.532804 -0.023838
v -1.946144 0.294379 0.347893
v -1.533708 0.057193 -2.195042
v 0.462414 1.048147 -2.027470
v 0.684914 1.569190 0.073995
v -1.168839 0.697607 0.826208
v -1.511768 1.206837 -1.585631
vt 0.644413 0.285547
vt 0.424410 0.433837
vt 0.252774 0.245094
vt 0.454320 0.165822
vt 0.260391 0.734402
vt 0.009043 0.734402
vt 0.000094 0.434025
vt 0.189827 0.442289
vt 0.669369 0.194096
vt 0.999906 0.244851
vt 0.893238 0.397534
vt 0.000094 0.184034
vt 0.005508 0.000094
vt 0.197647 0.081824
vt 0.495845 0.000094
vt 0.644413 0.285547
vt 0.454320 0.165822
vt 0.252774 0.245094
vt 0.424410 0.433837
vt 0.260391 0.734402
vt 0.189827 0.442289
vt 0.000094 0.434025
vt 0.009043 0.734402
vt 0.893238 0.397534
vt 0.999906 0.244851
vt 0.669369 0.194096
vt 0.000094 0.184034
vt 0.197647 0.081824
vt 0.005508 0.000094
vt 0.495845 0.000094
vn 0.1313 -0.9889 0.0691
vn -0.1693 0.9849 0.0370
vn 0.9995 0.0250 0.0183
vn 0.3370 -0.5189 0.7856
vn -0.9065 0.4218 0.0181
vn -0.1113 0.3565 -0.9276
vn -0.1493 0.9854 -0.0818
vn 0.1771 -0.9840 -0.0196
vn -0.9996 -0.0112 -0.0257
vn -0.3475 0.5549 -0.7558
vn 0.8925 -0.4508 -0.0122
vn 0.1185 -0.3928 0.9119
usemtl Material.003
s off
f 1/1/1 2/2/1 3/3/1 4/4/1
f 5/5/2 8/6/2 7/7/2 6/8/2
f 1/1/3 5/9/3 6/10/3 2/11/3
f 2/12/4 6/13/4 7/14/4 3/3/4
f 3/3/5 7/14/5 8/15/5 4/4/5
f 5/9/6 1/1/6 4/4/6 8/15/6
f 9/16/7 12/17/7 11/18/7 10/19/7
f 13/20/8 14/21/8 15/22/8 16/23/8
f 9/16/9 10/24/9 14/25/9 13/26/9
f 10/27/10 11/18/10 15/28/10 14/29/10
f 11/18/11 12/17/11 16/30/11 15/28/11
f 13/26/12 16/30/12 12/17/12 9/16/12
